<?xml version="1.0" encoding="utf-8" ?>
<svg xmlns="http://www.w3.org/2000/svg" xmlns:xlink="http://www.w3.org/1999/xlink" width="1024" height="1024">
	<path fill="#39201F" d="M713.438 69.8544C713.922 70.3709 714.359 70.8385 714.751 71.4322C722.476 83.1475 728.456 97.0895 733.518 110.163C754.856 165.271 761.84 230.564 741.38 287.106C738.455 295.19 734.437 303.492 730.438 311.107C727.116 317.433 716.97 333.027 715.99 338.947L716.561 338.976C721.632 334.534 727.425 325.77 732.401 320.244Q734.312 318.126 736.275 316.056Q738.239 313.986 740.252 311.965Q742.266 309.945 744.329 307.974Q746.392 306.004 748.503 304.085Q750.614 302.166 752.772 300.3Q754.93 298.434 757.133 296.622Q759.337 294.81 761.584 293.053Q763.832 291.296 766.122 289.595Q768.412 287.894 770.744 286.25Q773.076 284.606 775.447 283.02Q777.819 281.434 780.229 279.908Q782.639 278.381 785.086 276.915Q787.533 275.448 790.015 274.043Q792.498 272.637 795.014 271.293Q797.531 269.949 800.08 268.668Q802.629 267.387 805.209 266.169Q807.788 264.951 810.398 263.798Q813.007 262.644 815.644 261.555Q818.281 260.467 820.944 259.443Q823.607 258.42 826.294 257.463Q828.982 256.506 831.692 255.616Q834.402 254.725 837.134 253.902Q839.865 253.079 842.616 252.324Q845.367 251.568 848.136 250.881Q850.905 250.194 853.69 249.576Q856.475 248.957 859.274 248.408Q862.074 247.859 864.886 247.379Q867.698 246.899 870.521 246.488Q873.345 246.078 876.177 245.738Q879.01 245.397 881.85 245.127Q884.69 244.857 887.535 244.657Q890.381 244.457 893.231 244.327C886.435 247.768 879.997 251.462 874.042 256.255C864.202 264.174 856.46 274.798 850.688 285.97C827.311 331.219 848.259 372.552 857.056 417.953C861.727 442.062 863.429 468.021 860.728 492.446C877.332 458.884 881.005 436.818 883.328 399.718C886.069 414.714 890.587 429.269 892.771 444.39C900.723 499.446 899.618 551.706 884.914 605.507C879.914 623.8 874.025 641.334 864.501 657.843C878.182 648.011 890.199 632.469 899.126 618.323C892.939 646.402 879.824 683.157 867.076 708.849C825.659 792.323 767.527 851.282 684.857 894.327C665.183 904.571 646.236 913.665 625.158 920.75C647.634 903.467 668.646 881.353 684.087 857.505C672.042 868.845 659.3 878.435 645.731 887.86C604.317 916.63 560.821 936.602 512.847 951.79C451.75 934.231 393.024 902.71 342.631 864.139C351.015 875.13 359.453 885.194 369.294 894.911C375.162 900.554 380.983 905.987 387.499 910.89C392.726 914.824 398.296 918.264 403.442 922.31C391.772 919.726 380.358 914.925 369.385 910.258C354.264 903.827 339.256 897.177 324.953 889.048C313.76 882.687 303.077 875.354 292.433 868.122Q289.144 865.839 285.899 863.492Q282.655 861.144 279.457 858.734Q276.259 856.325 273.108 853.853Q269.958 851.381 266.856 848.849Q263.755 846.316 260.703 843.724Q257.651 841.131 254.65 838.48Q251.649 835.829 248.701 833.119Q245.752 830.41 242.857 827.644Q239.962 824.877 237.121 822.055Q234.28 819.233 231.495 816.356Q228.71 813.479 225.981 810.549Q223.252 807.618 220.581 804.635Q217.91 801.652 215.297 798.617Q212.685 795.582 210.132 792.497Q207.579 789.412 205.087 786.278Q202.594 783.144 200.164 779.962Q197.733 776.78 195.364 773.551Q192.996 770.323 190.691 767.048Q188.386 763.774 186.145 760.455Q183.904 757.137 181.728 753.775Q179.552 750.413 177.443 747.01Q175.333 743.607 173.289 740.163Q171.246 736.719 169.27 733.236Q167.295 729.753 165.387 726.233Q163.479 722.712 161.641 719.155Q159.802 715.597 158.033 712.005Q156.264 708.413 154.565 704.786Q152.867 701.16 151.239 697.502Q149.611 693.843 148.055 690.154Q146.499 686.464 145.015 682.745Q143.531 679.026 142.119 675.279Q140.708 671.531 139.37 667.757C133.458 651.47 127.628 634.674 124.374 617.624C136.406 636.531 143.876 644.455 160.405 659.269Q157.441 654.17 154.759 648.917C142.38 624.664 136.102 597.775 131.981 571.018C123.465 515.733 123.886 459.612 141.31 405.989C142.51 434.988 150.019 466.313 162.572 492.474C159.672 468.746 164.498 435.96 169.858 412.531C177.959 377.117 189.947 342.729 180.26 306.17C173.878 282.086 159.172 258.888 137.334 246.091C148.11 246.921 158.887 247.643 169.527 249.627C215.814 258.259 256.714 283.688 289.191 317.14C295.268 323.4 300.756 330.267 306.449 336.877Q302.54 330.695 299.07 324.255Q295.599 317.816 292.585 311.151Q289.57 304.487 287.026 297.628Q284.482 290.77 282.421 283.752C263.852 222.57 270.518 157.144 295.554 98.8531C299.752 89.0788 304.778 79.7326 309.792 70.362C316.625 80.1593 322.78 90.0986 330.453 99.295C361.762 136.819 404.397 164.717 445.466 190.382C451.571 194.197 457.457 197.991 464.596 199.505C479.64 202.695 495.532 200.423 510.777 200.384C526.52 200.343 544.306 202.845 559.74 199.225C571.199 196.537 585.705 186.169 595.766 179.854C645.253 148.794 682.233 120.322 713.438 69.8544Z"/>
	<path fill="#FC700C" d="M692.652 120.633C682.627 140.917 667.249 158.547 652.82 175.787C651.978 176.194 651.139 176.59 650.288 176.978C648.353 177.861 646.552 179.113 644.611 179.945C646.293 175.61 652.286 174.189 655.349 171.108C659.519 166.915 671.602 152.236 674.194 147.371C673.622 146.336 673.175 146.009 672.293 145.244C671.113 145.157 670.994 145.264 670.059 145.933C667.552 147.726 665.303 150.345 663.02 152.462C658.268 156.87 647.2 167.306 641.504 169.22C641.369 169.265 641.233 169.302 641.097 169.344C648.515 163.278 656.195 157.386 663.241 150.891C673.639 141.305 682.967 130.896 692.652 120.633Z"/>
	<path fill="#FEFEFE" d="M510.992 653.916C515.089 654.28 519.318 658.292 523.234 659.801C530.651 662.659 538.57 663.323 546.427 663.709C537.167 671.377 528.084 675.084 516.39 677.569C515.335 677.763 514.245 677.923 513.174 677.983C501.347 678.637 488.296 671.318 479.772 663.738C491.928 662.915 500.685 660.42 510.992 653.916Z"/>
	<path fill="#FEFEFE" d="M714.072 106.76C718.364 116.308 720.946 126.516 723.499 136.641C735.933 185.958 737.758 244.524 719.551 292.622C715.043 304.529 709.752 316.96 702.687 327.596L697.716 321.978C701.64 315.014 704.239 307.809 706.945 300.312C713.513 282.112 718.073 264.282 720.474 245.058C725.185 207.351 721.739 176.642 714.337 139.728C713.066 133.39 712.317 123.722 708.356 118.63Q711.11 112.645 714.072 106.76Z"/>
	<path fill="#FEFEFE" d="M320.173 329.868C310.753 311.087 301.794 291.864 296.582 271.427C284.438 223.807 284.465 169.691 303.735 123.852C305.632 119.339 306.734 113.804 309.364 109.705C309.853 108.944 309.922 108.696 310.838 108.538L311.608 110.474C311.176 124.505 308.798 138.877 307.383 152.872C302.635 199.83 300.358 243 313.345 289.091C316.558 300.491 319.962 313.495 326.032 323.716C324.006 325.671 322.113 327.823 320.173 329.868Z"/>
	<path fill="#D03707" d="M187.789 269.518C224.889 282.915 256.046 305.711 282.473 334.846C288.67 341.678 294.791 348.59 300.175 356.09C295.065 365.554 289.558 374.818 284.245 384.169C278.415 394.43 272.782 404.836 266.075 414.561C264.704 411.328 264.025 407.599 263.113 404.206Q260.628 394.877 257.845 385.633Q255.277 377.228 252.161 369.01Q249.044 360.792 245.394 352.797Q241.743 344.802 237.573 337.066Q233.404 329.329 228.734 321.883C218.752 305.944 207.577 292.716 194.224 279.498C191.947 277.244 188.153 274.264 186.833 271.343L187.789 269.518Z"/>
	<path fill="#D03707" d="M723.976 355.527C746.698 323.421 771.339 300.424 806.153 281.804C820.575 274.091 830.205 269.639 846.076 265.094C845.605 266.143 845.11 267.313 844.335 268.177C840.954 271.948 827.721 280.289 822.667 284.82C817.939 289.059 813.662 294.017 809.41 298.729C779.282 332.12 761.103 373.854 760.927 419.167C743.093 403.569 731.778 377.59 723.976 355.527Z"/>
	<path fill="#CCAC94" d="M311.608 110.474C313.018 116.73 316.898 123.263 319.957 128.919C329.093 145.808 340.262 161.552 352.322 176.47C362.801 189.432 374.74 201.096 382.021 216.339C366.3 204.413 348.647 196.66 330.797 188.514C333.26 214.154 336.269 234.776 348.052 258.343C335.951 246.686 326.122 235.193 317.276 220.819C319.519 241.079 324.204 263.265 333.135 281.63C336.727 289.016 341.2 295.853 345.7 302.703C338.999 309.527 332.868 317.071 326.032 323.716C319.962 313.495 316.558 300.491 313.345 289.091C300.358 243 302.635 199.83 307.383 152.872C308.798 138.877 311.176 124.505 311.608 110.474Z"/>
	<path fill="#CCAC94" d="M708.356 118.63C712.317 123.722 713.066 133.39 714.337 139.728C721.739 176.642 725.185 207.351 720.474 245.058C718.073 264.282 713.513 282.112 706.945 300.312C704.239 307.809 701.64 315.014 697.716 321.978C691.299 316.173 686.227 309.002 679.611 303.225C692.513 280.822 703.028 256.68 707.413 231.034C699.012 238.805 689.442 244.916 679.587 250.663C683.78 230.044 691.619 203.205 703.221 185.544C680.406 191.316 652.349 207.512 635.286 223.718C644.196 206.354 657.749 192.599 670.023 177.656C684.591 159.92 698.66 139.478 708.356 118.63Z"/>
	<path fill="#F25208" d="M846.076 265.094L851.393 263.105C830.895 286.418 823.294 312.353 825.17 343.123C826.406 363.413 833.029 383.124 837.745 402.783C845.689 435.899 847.443 465.681 844.939 499.517C842.839 498.961 840.364 498.004 838.194 498.076C815.785 490.82 793.523 481.885 775.529 466.304C765.861 457.932 757.195 448.235 748.35 439.011C759.507 440.702 787.826 440.679 799.345 439.177C785.297 436.292 771.168 429.255 760.927 419.167C761.103 373.854 779.282 332.12 809.41 298.729C813.662 294.017 817.939 289.059 822.667 284.82C827.721 280.289 840.954 271.948 844.335 268.177C845.11 267.313 845.605 266.143 846.076 265.094Z"/>
	<path fill="#FEFEFE" d="M264.016 472.358C270.784 469.201 277.187 465.162 284.101 462.35C305.784 453.53 333.136 452.03 355.259 460.093C362.255 462.643 368.622 466.082 374.852 470.132C357.266 466.56 346.025 463.101 327.464 467.009C331.823 468.238 336.235 469.216 340.517 470.712C375.172 482.816 404.464 505.234 430.064 531.015C440.073 541.094 450.181 551.824 457.202 564.261C463.569 575.541 469.115 589.481 471.918 602.154C470.514 603.267 469.368 604.805 468.188 606.153C471.005 623.479 484.168 630.846 498.197 638.913C500.851 640.439 504.491 642.079 506.386 644.502C506.53 645.637 506.633 646.058 506.085 647.119C504.26 650.658 498.323 652.974 494.611 654.044C484.198 657.047 473.266 655.339 463.926 650.005C449.796 641.933 442.724 625.172 438.919 610.065C437.637 604.973 436.935 599.721 435.498 594.67C429.63 574.034 414.943 551.307 395.862 540.733C407.606 553.561 414.903 568.563 421.458 584.451C404.041 570.547 384.6 561.687 364.343 552.85C344.128 544.032 323.628 536.011 303.396 527.265C321.904 524.038 343.785 531.56 361.475 536.631Q360.846 536.211 360.204 535.811Q358.582 534.786 356.936 533.801Q355.289 532.816 353.62 531.871Q351.95 530.927 350.258 530.023Q348.565 529.119 346.852 528.256Q345.138 527.393 343.404 526.573Q341.67 525.752 339.916 524.973Q338.163 524.195 336.391 523.459Q334.619 522.723 332.83 522.031Q331.041 521.338 329.235 520.689Q327.43 520.04 325.609 519.435Q323.788 518.831 321.954 518.27Q320.119 517.709 318.271 517.194Q316.423 516.678 314.563 516.207Q312.703 515.736 310.833 515.31Q308.962 514.885 307.081 514.505Q305.201 514.125 303.312 513.79Q301.422 513.456 299.526 513.167Q297.629 512.879 295.726 512.637Q293.823 512.394 291.914 512.198Q290.006 512.002 288.093 511.853Q286.18 511.703 284.264 511.6Q282.349 511.496 280.431 511.44Q278.513 511.383 276.595 511.373Q274.676 511.363 272.758 511.399Q270.84 511.435 268.923 511.518Q267.006 511.601 265.092 511.731Q263.178 511.86 261.267 512.036Q259.357 512.212 257.451 512.434Q255.546 512.656 253.646 512.924Q251.746 513.192 249.854 513.507Q247.961 513.821 246.077 514.181Q244.192 514.541 242.317 514.947C266.368 490.53 291.488 489.822 323.396 487.053C299.442 481.674 266.918 482.306 242.552 486.181Q253.388 479.431 264.016 472.358Z"/>
	<path fill="#CCAC94" d="M598.977 604.224C613.206 592.407 629.863 584.61 646.646 577.21C664.51 591.2 678.229 612.064 686.145 633.219C682.232 630.425 678.573 627.352 674.553 624.691C660.997 615.719 646.624 612.462 630.494 612.36C615.273 660.516 580.875 694.729 541.229 724.111C536.39 727.697 531.403 731.066 526.533 734.607C522.71 737.388 518.769 740.788 514.565 742.949C513.242 743.63 512.093 744.056 510.644 743.524C505.599 741.672 496.027 733.974 491.108 730.604C455.683 706.326 418.126 674.61 401.199 634.062C398.3 627.115 396.1 619.788 394.044 612.55C372.4 613.182 354.312 621.447 339.505 637.512C336.946 640.288 334.506 644.856 331.56 647.033C337.039 623.154 353.796 595.528 372.182 579.796C389.955 582.6 412.947 591.296 425.796 604.413C427.569 616.692 430.43 627.517 437.184 638.092C441.813 645.342 447.468 652.33 454.535 657.342C457.905 659.733 461.53 661.829 464.78 664.377C468.357 667.181 471.547 670.486 475.026 673.411C483.571 680.594 493.527 685.209 504.431 687.584C517.651 690.463 538.176 683.284 548.602 674.959C552.701 671.686 555.777 667.183 559.925 664.012C563.025 661.643 566.855 660.226 570.085 658.037C573.924 655.436 577.353 651.531 580.252 647.939C590.946 634.69 595.74 620.691 598.977 604.224Z"/>
	<path fill="#FEFEFE" d="M652.182 464.903Q654.807 463.571 657.492 462.365C680.694 452.208 708.657 451.182 732.736 458.659C739.59 460.788 745.942 464.116 752.607 466.728C759.588 471.816 766.697 476.792 774.267 480.974C779.429 483.825 784.809 486.132 790.051 488.801C760.095 487.629 738.389 476.476 707.191 489.092C736.303 485.198 756.946 497.214 779.282 514.273L781.863 516.253C740.481 505.695 704.713 517.405 668.073 535.842C685.57 531.729 702.871 527.341 720.9 526.367C710.045 530.457 700.323 536.42 689.921 541.453C670.814 550.697 651.095 558.638 631.953 567.801C622.839 572.164 614.267 578.129 605.102 582.179C612.677 560.173 620.036 548.562 635.92 531.233C615.472 544.72 593.441 573.651 588.595 597.667C587.731 601.949 587.208 606.306 586.144 610.547C582.738 624.128 575.745 640.75 563.67 648.858C554.656 654.912 542.421 656.804 531.876 654.565C525.183 653.144 519.714 650.321 515.039 645.249C519.207 641.808 523.618 639.531 528.392 637.057C544.193 628.868 550.132 623.635 555.654 606.54C554.437 604.852 553.298 603.111 551.765 601.69C553.684 593.624 556.912 585.016 560.572 577.616C582.897 532.484 619.714 494.264 666.481 474.446C673.896 471.304 681.627 470.287 689.113 467.699C689.249 467.652 689.385 467.602 689.521 467.554C675.863 464.71 666.187 463.467 652.182 464.903Z"/>
	<path fill="#CCAC94" d="M636.501 623.314C641.691 624.686 647.936 625.799 652.516 628.616C652.647 636.425 653.049 644.186 652.616 651.995C648.321 729.447 612.516 801.168 559.047 856.504C545.75 870.266 528.618 887.727 511.954 897.375C465.851 864.383 422.788 812.21 398.779 760.731C387.807 737.206 379.583 711.092 375.361 685.474C372.841 670.181 371.188 654.592 371.347 639.091C371.373 636.579 371.863 632.945 371.027 630.608Q379.472 628.205 387.999 626.111C388.277 632.902 388.913 639.749 389.747 646.494C391.779 662.926 396.019 678.497 401.017 694.246C421.787 759.684 458.778 807.723 512.622 849.72Q530.411 835.563 546.626 819.628C599.266 767.69 636.045 698.497 636.501 623.314Z"/>
	<path fill="#D03707" d="M141.427 521.81L142.302 521.343C154.112 547.831 161.248 576.28 173.151 602.832C202.59 668.504 240.696 713.969 294.826 760.467C311.942 775.17 331.739 791.043 350.738 803.052C339.569 777.849 330.956 751.948 329.069 724.254C328.293 712.867 328.161 701.237 329.423 689.884C329.816 686.342 333.494 674.405 332.395 671.556C335.448 667.717 340.145 664.509 344.033 661.493C343.6 664.212 343.408 667.008 343.22 669.752C342.202 684.602 343.431 699.072 345.493 713.771C347.193 725.897 349.369 738.095 352.759 749.872C363.533 787.295 384.882 822.494 408.762 852.932C419.012 865.996 430.899 877.785 441.824 890.281C428.314 885.526 414.487 881.192 401.259 875.71C386.035 869.401 371.824 861.726 357.829 853.077C335.629 839.356 317.373 825.503 300.999 804.922C295.999 798.638 292.529 791.52 288.071 784.9C293.809 821.636 307.056 844.729 329.944 873.132C285.552 846.171 249.162 815.957 216.807 775.109C207.911 763.878 199.449 752.445 191.897 740.254C179.861 720.824 169.609 700.114 160.133 679.341C177.253 692.472 189.082 699.836 209.996 706.738C199.202 695.787 190.775 683.347 183.114 670.078C157.262 625.305 144.06 573.268 141.427 521.81Z"/>
	<path fill="#FEFEFE" d="M630.494 612.36C646.624 612.462 660.997 615.719 674.553 624.691C678.573 627.352 682.232 630.425 686.145 633.219C689.224 640.366 691.955 647.55 694.211 655.002C682.929 643.231 667.392 634.849 652.516 628.616C647.936 625.799 641.691 624.686 636.501 623.314C636.045 698.497 599.266 767.69 546.626 819.628Q530.411 835.563 512.622 849.72C458.778 807.723 421.787 759.684 401.017 694.246C396.019 678.497 391.779 662.926 389.747 646.494C388.913 639.749 388.277 632.902 387.999 626.111Q379.472 628.205 371.027 630.608C355.345 635.595 340.57 643.392 328.963 655.253C329.76 652.481 330.596 649.752 331.56 647.033C334.506 644.856 336.946 640.288 339.505 637.512C354.312 621.447 372.4 613.182 394.044 612.55C396.1 619.788 398.3 627.115 401.199 634.062C418.126 674.61 455.683 706.326 491.108 730.604C496.027 733.974 505.599 741.672 510.644 743.524C512.093 744.056 513.242 743.63 514.565 742.949C518.769 740.788 522.71 737.388 526.533 734.607C531.403 731.066 536.39 727.697 541.229 724.111C580.875 694.729 615.273 660.516 630.494 612.36Z"/>
	<path fill="#F25208" d="M644.611 179.945C646.552 179.113 648.353 177.861 650.288 176.978C651.139 176.59 651.978 176.194 652.82 175.787C644.577 185.608 635.69 195.321 628.575 206C606.706 238.824 598.64 279.358 588.883 316.938C596.747 302.536 605.648 288.709 614.378 274.825C626.168 279.296 637.402 285.621 647.731 292.833C667.659 306.746 695.009 332.604 706.898 353.928C710.712 360.77 713.63 368.305 716.913 375.428C726.932 397.166 737.879 414.342 756.525 429.75C748.189 428.047 739.878 426.256 731.705 423.87C714.35 418.803 694.073 409.142 675.769 413.43C717.137 422.043 725.953 438.604 752.607 466.728C745.942 464.116 739.59 460.788 732.736 458.659C708.657 451.182 680.694 452.208 657.492 462.365Q654.807 463.571 652.182 464.903C666.187 463.467 675.863 464.71 689.521 467.554C689.385 467.602 689.249 467.652 689.113 467.699C681.627 470.287 673.896 471.304 666.481 474.446C619.714 494.264 582.897 532.484 560.572 577.616C556.912 585.016 553.684 593.624 551.765 601.69L550.071 600.27C548.248 588.688 547.634 576.879 546.023 565.251C542.503 539.851 537.611 515.23 539.113 489.451C540.999 485.883 542.324 472.848 543.796 467.869C549.253 449.418 568.219 414.182 581.912 401.087C581.493 403.089 579.999 404.706 578.864 406.383L579.077 406.856C583.902 405.058 591.94 398.471 597.037 395.424C601.139 392.971 605.501 390.287 609.841 388.299C627.406 380.255 649.375 377.164 668.403 380.107C680.269 381.942 692.007 385.554 703.645 388.478C697.931 379.977 692.823 371.061 687.083 362.566C673.236 342.076 655.749 323.369 635.295 309.401Q634.86 309.591 634.432 309.794C595.007 328.165 547.132 361.491 531.606 403.925C534.822 389.492 539.315 375.941 545.51 362.495C549.685 353.433 554.601 344.807 558.033 335.4C563.108 321.494 566.387 307.064 570.673 292.915C580.572 260.236 595.751 227.29 619.514 202.225C627.267 194.047 636.398 187.586 644.611 179.945Z"/>
	<path fill="#39201F" d="M656.338 388.204C672.085 386.528 690.253 389.727 704.761 395.838C686.313 392.379 668.226 393.17 651.097 401.46C651.077 414.408 650.535 428.125 646.16 440.418C636.756 466.838 604.051 469.897 581.786 480.573C570.251 486.329 560.83 492.704 552.585 502.685C559.497 475.306 567.022 450.307 585.205 427.863C602.694 406.275 628.66 391.129 656.338 388.204Z"/>
	<path fill="#FEFEFE" d="M607.7 423.316C611.746 419.649 616.325 416.2 620.89 413.204C624.171 419.492 625.329 425.341 623.237 432.323C621.288 438.824 617.059 444.263 610.935 447.285C608.097 448.685 604.97 449.234 601.866 449.703C596.982 448.055 593.099 445.827 590.716 441.001Q590.316 440.173 589.979 439.317C591.656 436.808 593.64 434.426 595.476 432.026C596.034 433.994 596.753 435.874 597.815 437.631C599.532 440.472 602.62 445.033 605.927 445.794C606.587 445.563 607.102 445.564 607.483 444.918C609.517 441.481 608.803 427.18 607.7 423.316Z"/>
	<path fill="#FCA03D" d="M620.89 413.204C624.77 411.692 628.624 410.207 632.612 408.993C634.99 421.777 635.908 435.823 628.255 447.117C616.265 464.808 589.635 462.532 572.095 471.759C576.915 460.254 582.524 449.382 589.979 439.317Q590.316 440.173 590.716 441.001C593.099 445.827 596.982 448.055 601.866 449.703C604.97 449.234 608.097 448.685 610.935 447.285C617.059 444.263 621.288 438.824 623.237 432.323C625.329 425.341 624.171 419.492 620.89 413.204Z"/>
	<path fill="#F25208" d="M324.615 111.702C334.356 122.676 344.829 132.788 354.902 143.433C351.689 142.41 350.21 139.473 347.278 138.057C356.345 154.384 367.14 163.681 380.032 176.576C390.934 187.479 401.998 198.705 411.888 210.536C432.806 235.56 445.485 265.685 454.647 296.708C458.557 309.949 461.783 323.482 466.74 336.384C470.8 346.95 476.989 356.501 481.945 366.64C487.211 377.417 490.79 389.499 493.708 401.114C490.191 393.614 486.461 386.304 481.65 379.529C462.309 352.296 429.122 327.264 397.795 315.894Q390.529 313.314 383.032 311.513C354.43 336.308 338.265 358.385 318.103 390.155C324.604 388.394 331.268 387.168 337.918 386.108C343.695 381.011 372.475 379.702 380.186 380.162C393.111 380.933 403.426 384.555 414.944 390.208C418.386 392.714 421.995 395.003 425.361 397.607C430.062 401.244 434.489 405.386 439.621 408.403C439.816 408.518 440.008 408.64 440.202 408.757L440.554 408.966C438.604 403.898 434.61 395.4 430.651 391.734L430.753 390.486L431.925 389.743C452.323 408.64 467.275 434.292 476.466 460.367C477.622 463.646 481.177 478.374 482.424 480.044L482.595 479.89C483.807 484.15 482.504 490.922 482.465 495.447C482.251 520.085 480.209 544.458 477.553 568.95Q476.27 579.907 474.74 590.832C474.331 593.923 473.551 597.339 473.615 600.451L471.918 602.154C469.115 589.481 463.569 575.541 457.202 564.261C450.181 551.824 440.073 541.094 430.064 531.015C404.464 505.234 375.172 482.816 340.517 470.712C336.235 469.216 331.823 468.238 327.464 467.009C346.025 463.101 357.266 466.56 374.852 470.132C368.622 466.082 362.255 462.643 355.259 460.093C333.136 452.03 305.784 453.53 284.101 462.35C277.187 465.162 270.784 469.201 264.016 472.358C266.16 468.68 273.476 462.972 276.708 459.697C289.147 447.094 300.89 432.958 316.704 424.442C323.55 420.755 331.085 418.089 338.296 415.189C316.776 418.343 295.566 422.967 274.074 426.134C284.587 410.668 293.34 394.271 303.025 378.313C311.141 364.941 319.638 351.267 329.397 339.037C350.536 312.546 378.915 291.149 408.802 275.497C416.294 292.771 425.946 310.762 437.113 325.992C428.963 305.828 425.067 285.049 419.351 264.204C414.273 245.685 407.133 227.445 397.467 210.824C386.546 192.046 371.701 177.273 357.837 160.76Q348.363 149.329 340.038 137.035Q331.713 124.742 324.615 111.702Z"/>
	<path fill="#39201F" d="M337.918 386.108C344.509 385.934 351.086 385.714 357.668 386.25C382.875 388.306 408.715 398.015 427.182 415.647C457.654 444.741 470.648 484.979 474.922 525.909C468.977 512.729 459.653 491.08 448.186 482.058C445.196 479.705 441.592 478.144 438.049 476.829C413.027 467.538 395.307 467.836 382.38 440.281C376.182 427.071 375.341 414.134 375.133 399.808C364.015 394.435 340.495 391.824 328.307 391.905C326.176 391.919 317.31 392.678 316.084 391.196C316.77 390.779 317.35 390.448 318.103 390.155C324.604 388.394 331.268 387.168 337.918 386.108Z"/>
	<path fill="#FCA03D" d="M390.946 410.475C398.901 412.745 406.578 415.254 413.922 419.104C413.188 422.199 412.329 425.249 411.457 428.307C411.437 431.938 412.065 441.6 414.877 444.151C415.883 445.063 416.415 444.854 417.616 444.653C422.728 441.059 424.185 432.917 425.238 427.158L432.278 434.07C438.071 439.799 442.288 446.706 445.981 453.912C445.022 454.792 444.048 455.643 442.944 456.341C435.049 461.326 424.052 462.219 415.125 460.029C406.289 457.862 398.96 452.817 394.335 444.922C388.027 434.154 387.919 422.269 390.946 410.475Z"/>
	<path fill="#FEFEFE" d="M432.278 434.07C432.322 434.798 432.367 435.515 432.351 436.244C432.274 439.723 430.359 443.657 427.728 445.926C424.845 448.412 420.87 449.517 417.111 449.109C411.887 448.543 406.847 445.305 403.603 441.256C400.419 437.281 397.794 430.889 398.61 425.675C398.789 424.531 398.569 424.952 399.495 424.258C403.411 424.613 407.735 426.954 411.457 428.307C411.437 431.938 412.065 441.6 414.877 444.151C415.883 445.063 416.415 444.854 417.616 444.653C422.728 441.059 424.185 432.917 425.238 427.158L432.278 434.07Z"/>
	<path fill="#F25208" d="M175.387 265.753C179.558 266.846 183.672 268.235 187.789 269.518L186.833 271.343C188.153 274.264 191.947 277.244 194.224 279.498C207.577 292.716 218.752 305.944 228.734 321.883Q233.404 329.329 237.573 337.065Q241.743 344.802 245.394 352.797Q249.044 360.792 252.161 369.01Q255.277 377.228 257.845 385.633Q260.628 394.877 263.113 404.206C264.025 407.599 264.704 411.328 266.075 414.561C259.432 424.439 251.003 432.096 240.052 437.009C252.839 438.775 266.905 438.393 279.634 436.048C272.738 442.786 266.536 450.242 259.969 457.299C246.804 471.447 230.739 483.709 212.241 489.898C206.228 491.909 200.048 493.104 193.917 494.662C208.212 496.219 223.072 497.46 237.086 500.665C228.273 510.965 219.624 520.915 213.225 532.989C213.413 533.028 213.599 533.079 213.789 533.104C218.105 533.663 223.828 532.332 228.241 531.987C235.704 531.403 243.468 531.261 250.93 531.838C280.986 534.159 306.918 549.572 334.254 560.521C318.293 570.203 303.782 584.736 295.319 601.492C317.775 587.048 325.403 586.708 350 580.741Q347.988 583.219 346.076 585.775Q344.163 588.331 342.354 590.96Q340.544 593.59 338.839 596.288Q337.134 598.987 335.537 601.751Q333.94 604.515 332.454 607.34Q330.967 610.165 329.594 613.046Q328.22 615.927 326.961 618.86Q325.702 621.794 324.56 624.775Q323.418 627.755 322.394 630.779Q321.37 633.802 320.467 636.864Q319.563 639.925 318.782 643.02Q318 646.115 317.341 649.238Q316.682 652.362 316.146 655.508Q315.611 658.655 315.201 661.821Q314.79 664.986 314.505 668.166Q314.219 671.345 314.06 674.533C313.767 679.989 313.065 686.149 313.768 691.561C313.862 692.283 313.89 692.171 314.227 692.99C319.69 685.188 325.51 678.164 332.395 671.556C333.494 674.405 329.816 686.342 329.423 689.884C328.161 701.237 328.293 712.867 329.069 724.254C330.956 751.948 339.569 777.849 350.738 803.052C331.739 791.043 311.942 775.17 294.826 760.467C240.696 713.969 202.59 668.504 173.151 602.832C161.248 576.28 154.112 547.831 142.302 521.343L141.427 521.81C139.984 504.531 139.448 487.485 139.566 470.154L141.551 476.009C153.664 511.226 171.925 546.582 201.303 570.416C206.361 574.52 211.684 578.64 217.551 581.5C213.475 576.402 208.754 571.808 204.587 566.768C196.645 557.166 190.002 546.992 185.707 535.234C172.833 499.982 178.393 448.349 186.23 412.399C190.853 391.193 197.648 370.387 199.582 348.684C202.218 319.095 194.629 288.778 175.387 265.753Z"/>
	<path fill="#D03707" d="M213.225 532.989C213.413 533.028 213.599 533.079 213.789 533.104C218.105 533.663 223.828 532.332 228.241 531.987C235.704 531.403 243.468 531.261 250.93 531.838C280.986 534.159 306.918 549.572 334.254 560.521C318.293 570.203 303.782 584.736 295.319 601.492C317.775 587.048 325.403 586.708 350 580.741Q347.988 583.219 346.076 585.775Q344.163 588.331 342.354 590.96Q340.544 593.59 338.839 596.288Q337.134 598.987 335.537 601.751Q333.94 604.515 332.454 607.34Q330.967 610.165 329.594 613.046Q328.22 615.927 326.961 618.86Q325.702 621.794 324.56 624.775Q323.418 627.755 322.394 630.779Q321.37 633.802 320.467 636.864Q319.563 639.925 318.782 643.02Q318 646.115 317.341 649.238Q316.682 652.362 316.146 655.508Q315.611 658.655 315.201 661.821Q314.79 664.986 314.505 668.166Q314.219 671.345 314.06 674.533C313.767 679.989 313.065 686.149 313.768 691.561C313.862 692.283 313.89 692.171 314.227 692.99C313.645 695.757 311.64 698.846 310.813 701.706C308.213 710.704 306.766 720.422 305.518 729.694C303.005 721.38 301.709 712.401 300.768 703.773C297.253 671.525 301.48 639.906 316.483 610.917C296.508 621.325 279.096 636.783 268.338 656.687C269.774 623.192 277.854 590.737 296.372 562.446C263.502 551.026 241.255 546.552 206.3 546.52C208.489 541.933 210.66 537.384 213.225 532.989Z"/>
	<path fill="#D03707" d="M877.778 489.62C879.657 483.783 881.513 477.761 883.846 472.094C884.375 487.95 884.666 504.263 883.737 520.095C880.827 569.68 868.173 621.019 844.465 664.811C836.612 679.316 828.216 692.964 816.846 705.043Q816.487 705.424 816.122 705.8C833.12 699.17 846.556 692.314 861.341 681.375C856.561 692.619 851.831 703.951 846.217 714.808Q843.793 719.417 841.247 723.96Q838.701 728.503 836.034 732.976Q833.367 737.45 830.581 741.85Q827.796 746.25 824.894 750.574Q821.991 754.898 818.974 759.143Q815.957 763.388 812.828 767.551Q809.698 771.713 806.458 775.791Q803.219 779.868 799.871 783.857Q796.523 787.847 793.07 791.745Q789.617 795.643 786.06 799.448Q782.504 803.252 778.847 806.96Q775.19 810.668 771.436 814.277Q767.681 817.886 763.831 821.393Q759.981 824.9 756.038 828.302Q752.096 831.705 748.064 835.001Q744.032 838.297 739.913 841.484C724.593 853.525 707.837 863.583 692.52 875.551Q704.048 859.53 714.519 842.799Q724.99 826.068 734.36 808.697C738.388 801.188 741.399 793.148 745.483 785.702C708.772 823.307 662.042 856.801 613.849 877.724C602.735 882.549 591.386 886.028 580.041 890.162C634.113 841.146 678.215 766.034 681.848 691.858Q682.581 676.315 682.352 660.757C692.064 670.783 700.619 680.396 707.986 692.333C708.222 685.322 708.421 678.339 707.812 671.337C705.235 641.722 694.197 604.71 676.88 580.679C700.481 585.868 710.327 589.607 730.091 603.769C717.92 583.611 710.602 575.306 692.339 560.894C725.697 544.8 763.658 528.805 801.425 535.463C812.313 537.382 822.076 541.731 832.616 544.713C817.032 532.071 802.454 517.269 788.916 502.489C800.67 498.511 812.9 497.956 825.208 498.052C829.391 498.084 834.067 498.603 838.194 498.076C840.364 498.004 842.839 498.961 844.939 499.517C843.644 511.446 838.444 547.543 830.882 556.08C821.935 568.326 809.849 578.512 798.309 588.224L797.176 588.047L798.658 587.955L797.034 589.331L797.475 589.363C835.284 563.831 860.547 531.579 877.778 489.62Z"/>
	<path fill="#F25208" d="M877.778 489.62C878.968 492.177 877.556 497.835 877.156 500.748C873.238 529.278 865.317 560.638 855.438 587.699C845.992 613.576 833.118 638.777 818.624 662.171C794.604 700.944 767.376 733.857 731.849 762.702C720.254 772.115 708.04 780.458 696.022 789.283C689.825 793.833 683.937 798.854 677.695 803.322C693.554 766.817 698.789 726.649 698.286 687.118C704.595 696.181 708.897 706.023 711.558 716.737C712.578 720.845 713.185 725.199 714.526 729.201C728.815 683.909 731.192 653.668 713.159 608.757C732.37 618.414 751.585 635.546 764.486 652.487C762.994 643.906 762.014 635.141 760.056 626.66C755.334 606.206 744.854 588.149 733.129 571.006C760.192 555.861 783.866 548.894 815.002 553.105C819.591 553.726 824.547 554.21 829.024 555.339Q830.003 555.585 830.882 556.08C821.935 568.326 809.849 578.512 798.309 588.224L797.176 588.047L798.658 587.955L797.034 589.331L797.475 589.363C835.284 563.831 860.547 531.579 877.778 489.62Z"/>
	<path fill="#FCA03D" d="M347.278 138.057C350.21 139.473 351.689 142.41 354.902 143.433C365.168 152.415 375.332 161.521 386.081 169.931C396.718 178.253 407.962 185.808 418.522 194.213C439.504 210.912 464.32 236.374 476.078 260.414C476.141 260.262 476.197 260.108 476.266 259.96C476.338 259.801 476.421 259.649 476.499 259.493C476.333 259.336 476.13 259.209 475.999 259.021C475.921 258.909 475.501 257.697 475.493 257.676C471.47 247.047 459.869 230.155 453.053 220.392C461.977 223.184 470.792 226.33 479.949 228.297C510.771 234.917 542.631 231.278 571.743 219.693C564.242 230.227 551.9 246.584 548.516 258.729L548.856 258.935C567.752 221.42 607.356 192.553 641.097 169.344C641.233 169.302 641.369 169.265 641.504 169.22C647.2 167.306 658.268 156.87 663.02 152.462C665.303 150.345 667.552 147.726 670.059 145.933C670.994 145.264 671.113 145.157 672.293 145.244C673.175 146.009 673.622 146.336 674.194 147.371C671.602 152.236 659.519 166.915 655.349 171.108C652.286 174.189 646.293 175.61 644.611 179.945C636.398 187.586 627.267 194.047 619.514 202.225C595.751 227.29 580.572 260.236 570.673 292.915C566.387 307.064 563.108 321.494 558.033 335.4C554.601 344.807 549.685 353.433 545.51 362.495C539.315 375.941 534.822 389.492 531.606 403.925C547.132 361.491 595.007 328.165 634.432 309.794Q634.86 309.591 635.295 309.401C655.749 323.369 673.236 342.076 687.083 362.566C692.823 371.061 697.931 379.977 703.645 388.478C692.007 385.554 680.269 381.942 668.403 380.107C649.375 377.164 627.406 380.255 609.841 388.299C605.501 390.287 601.139 392.971 597.037 395.424C591.94 398.471 583.902 405.058 579.077 406.856L578.864 406.383C579.999 404.706 581.493 403.089 581.912 401.087C568.219 414.182 549.253 449.418 543.796 467.869C542.324 472.848 540.999 485.883 539.113 489.451C537.611 515.23 542.503 539.851 546.023 565.251C547.634 576.879 548.248 588.688 550.071 600.27C540.786 593.515 528.745 589.046 517.336 587.85C502.784 586.324 485.041 591.322 473.615 600.451C473.551 597.339 474.331 593.923 474.74 590.832Q476.27 579.907 477.553 568.95C480.209 544.458 482.251 520.085 482.465 495.447C482.504 490.922 483.807 484.15 482.595 479.89L482.424 480.044C481.177 478.374 477.622 463.646 476.466 460.367C467.275 434.292 452.323 408.64 431.925 389.743L430.753 390.486L430.651 391.734C434.61 395.4 438.604 403.898 440.554 408.966L440.202 408.757C440.008 408.64 439.816 408.518 439.621 408.403C434.489 405.386 430.062 401.244 425.361 397.607C421.995 395.003 418.386 392.714 414.944 390.208C403.426 384.555 393.111 380.933 380.186 380.162C372.475 379.702 343.695 381.011 337.918 386.108C331.268 387.168 324.604 388.394 318.103 390.155C338.265 358.385 354.43 336.308 383.032 311.513Q390.529 313.314 397.795 315.894C429.122 327.264 462.309 352.296 481.65 379.529C486.461 386.304 490.191 393.614 493.708 401.114C490.79 389.499 487.211 377.417 481.945 366.64C476.989 356.501 470.8 346.95 466.74 336.384C461.783 323.482 458.557 309.949 454.647 296.708C445.485 265.685 432.806 235.56 411.888 210.536C401.998 198.705 390.934 187.479 380.032 176.576C367.14 163.681 356.345 154.384 347.278 138.057Z"/>
	<path fill="#FC700C" d="M417.061 378.186C422.26 381.064 427.729 385.501 431.925 389.743L430.753 390.486L430.651 391.734C434.61 395.4 438.604 403.898 440.554 408.966L440.202 408.757C440.008 408.64 439.816 408.518 439.621 408.403C434.489 405.386 430.062 401.244 425.361 397.607C421.995 395.003 418.386 392.714 414.944 390.208C420.677 391.115 426.418 397.636 431.098 400.916C431.928 400.053 432.5 398.416 432.436 397.203C432.326 395.098 430.3 393.729 428.815 392.506C425.56 389.994 422.71 387.25 419.827 384.322C422.015 385.377 423.903 387.507 426.102 388.222L426.768 386.929C425.183 383.581 419.345 382.234 417.372 378.772C417.263 378.58 417.165 378.381 417.061 378.186Z"/>
	<defs>
		<linearGradient id="gradient_0" gradientUnits="userSpaceOnUse" x1="447.01532" y1="389.91653" x2="421.10513" y2="420.22595">
			<stop offset="0" stop-color="#3C1C1B"/>
			<stop offset="1" stop-color="#302724"/>
		</linearGradient>
	</defs>
	<path fill="url(#gradient_0)" d="M360.159 357.733C364.73 356.632 369.699 356.86 374.36 357.096C392.574 358.015 410.307 362.812 425.954 372.329C453.701 389.207 471.185 418.04 478.569 449.08Q480.361 456.659 481.37 464.382Q482.379 472.105 482.595 479.89L482.424 480.044C481.177 478.374 477.622 463.646 476.466 460.367C467.275 434.292 452.323 408.64 431.925 389.743C427.729 385.501 422.26 381.064 417.061 378.186C404.241 366.614 377.144 359.12 360.159 357.733Z"/>
	<path fill="#39201F" d="M539.113 489.451C541.343 453.817 549.023 418.877 574.618 392.124C598.689 366.963 624.407 357.205 658.855 356.493C627.109 363.147 603.041 376.344 581.912 401.087C568.219 414.182 549.253 449.418 543.796 467.869C542.324 472.848 540.999 485.883 539.113 489.451Z"/>
</svg>
